<svg width="1200" height="700" viewBox="0 0 1200 700" fill="none" xmlns="http://www.w3.org/2000/svg">
  <defs>
    <linearGradient id="bg" x1="0" y1="0" x2="1" y2="1">
      <stop offset="0%" stop-color="#f6f7fb" />
      <stop offset="100%" stop-color="#eef2f8" />
    </linearGradient>
  </defs>
  <rect width="1200" height="700" fill="url(#bg)" />
  <circle cx="170" cy="110" r="140" fill="#2563eb" opacity="0.08" />
  <circle cx="980" cy="80" r="180" fill="#0ea5e9" opacity="0.08" />
  <circle cx="640" cy="560" r="220" fill="#6366f1" opacity="0.08" />

  <rect x="110" y="70" width="980" height="80" rx="18" fill="#ffffff" stroke="#e5e7eb" />
  <rect x="140" y="95" width="180" height="26" rx="13" fill="#ffffff" stroke="#e5e7eb" />
  <text x="150" y="112" fill="#2563eb" font-family="Helvetica, Arial, sans-serif" font-size="12" letter-spacing="2">HUMAN-FIRST</text>
  <text x="140" y="142" fill="#1f2937" font-family="Helvetica, Arial, sans-serif" font-size="24" font-weight="600">LogService Guided Console</text>

  <rect x="110" y="180" width="650" height="420" rx="20" fill="#ffffff" stroke="#e5e7eb" />
  <rect x="140" y="210" width="590" height="40" rx="12" fill="#f9fafb" stroke="#e5e7eb" />
  <rect x="140" y="265" width="590" height="40" rx="12" fill="#f9fafb" stroke="#e5e7eb" />
  <rect x="140" y="320" width="590" height="40" rx="12" fill="#f9fafb" stroke="#e5e7eb" />
  <rect x="140" y="375" width="590" height="40" rx="12" fill="#f9fafb" stroke="#e5e7eb" />
  <rect x="140" y="440" width="120" height="34" rx="12" fill="#2563eb" />
  <rect x="270" y="440" width="120" height="34" rx="12" fill="#ffffff" stroke="#e5e7eb" />

  <rect x="790" y="180" width="300" height="260" rx="20" fill="#ffffff" stroke="#e5e7eb" />
  <rect x="810" y="205" width="260" height="50" rx="14" fill="#ffffff" stroke="#e5e7eb" />
  <rect x="810" y="265" width="260" height="50" rx="14" fill="#ffffff" stroke="#e5e7eb" />
  <rect x="810" y="325" width="260" height="50" rx="14" fill="#ffffff" stroke="#e5e7eb" />
  <rect x="810" y="205" width="6" height="50" fill="#2563eb" />
  <rect x="810" y="265" width="6" height="50" fill="#0ea5e9" />

  <rect x="790" y="460" width="300" height="140" rx="20" fill="#ffffff" stroke="#e5e7eb" />
  <rect x="810" y="485" width="260" height="20" rx="10" fill="#f9fafb" stroke="#e5e7eb" />
  <rect x="810" y="515" width="260" height="20" rx="10" fill="#f9fafb" stroke="#e5e7eb" />
</svg>
