<svg width="1200" height="700" viewBox="0 0 1200 700" fill="none" xmlns="http://www.w3.org/2000/svg">
  <defs>
    <linearGradient id="bg" x1="0" y1="0" x2="1" y2="1">
      <stop offset="0%" stop-color="#0c1118" />
      <stop offset="100%" stop-color="#0f1620" />
    </linearGradient>
  </defs>
  <rect width="1200" height="700" fill="url(#bg)" />
  <circle cx="180" cy="120" r="140" fill="#7bdff2" opacity="0.15" />
  <circle cx="980" cy="80" r="180" fill="#f7c948" opacity="0.12" />
  <circle cx="640" cy="560" r="220" fill="#6366f1" opacity="0.12" />

  <rect x="120" y="80" width="960" height="90" rx="18" fill="#121826" stroke="#2a2f3a" />
  <rect x="150" y="105" width="180" height="30" rx="15" fill="#141c2a" stroke="#2a2f3a" />
  <text x="160" y="125" fill="#f7c948" font-family="Helvetica, Arial, sans-serif" font-size="12" letter-spacing="2">LOKI CONSOLE</text>
  <text x="150" y="160" fill="#f4f7fb" font-family="Helvetica, Arial, sans-serif" font-size="28" font-weight="600">LogService UI Preview</text>

  <rect x="120" y="200" width="960" height="210" rx="20" fill="#111821" stroke="#2a2f3a" />
  <rect x="150" y="230" width="260" height="50" rx="12" fill="#0f141e" stroke="#2a2f3a" />
  <rect x="430" y="230" width="260" height="50" rx="12" fill="#0f141e" stroke="#2a2f3a" />
  <rect x="710" y="230" width="340" height="50" rx="12" fill="#0f141e" stroke="#2a2f3a" />
  <rect x="150" y="300" width="260" height="50" rx="12" fill="#0f141e" stroke="#2a2f3a" />
  <rect x="430" y="300" width="260" height="50" rx="12" fill="#0f141e" stroke="#2a2f3a" />
  <rect x="710" y="300" width="340" height="50" rx="12" fill="#0f141e" stroke="#2a2f3a" />

  <rect x="150" y="365" width="140" height="36" rx="12" fill="#f7c948" />
  <rect x="300" y="365" width="140" height="36" rx="12" fill="#0f141e" stroke="#2a2f3a" />
  <text x="180" y="388" fill="#111827" font-family="Helvetica, Arial, sans-serif" font-size="12" font-weight="700">Run Query</text>
  <text x="332" y="388" fill="#f4f7fb" font-family="Helvetica, Arial, sans-serif" font-size="12">Export</text>

  <rect x="120" y="430" width="960" height="180" rx="20" fill="#111821" stroke="#2a2f3a" />
  <rect x="150" y="460" width="900" height="50" rx="14" fill="#141c2a" stroke="#2a2f3a" />
  <rect x="150" y="520" width="900" height="50" rx="14" fill="#141c2a" stroke="#2a2f3a" />
  <rect x="150" y="580" width="900" height="50" rx="14" fill="#141c2a" stroke="#2a2f3a" />
  <rect x="150" y="460" width="6" height="50" fill="#f7c948" />
  <rect x="150" y="520" width="6" height="50" fill="#7bdff2" />
  <rect x="150" y="580" width="6" height="50" fill="#7bdff2" />
</svg>
