<svg width="1200" height="700" viewBox="0 0 1200 700" fill="none" xmlns="http://www.w3.org/2000/svg">
  <defs>
    <linearGradient id="bg" x1="0" y1="0" x2="1" y2="1">
      <stop offset="0%" stop-color="#f4efe6" />
      <stop offset="100%" stop-color="#efe6d8" />
    </linearGradient>
  </defs>
  <rect width="1200" height="700" fill="url(#bg)" />
  <circle cx="170" cy="110" r="140" fill="#1f4f5a" opacity="0.08" />
  <circle cx="980" cy="80" r="180" fill="#3a7ca5" opacity="0.08" />
  <circle cx="640" cy="560" r="220" fill="#c68e40" opacity="0.08" />

  <rect x="110" y="70" width="980" height="80" rx="18" fill="#ffffff" stroke="#e2d8c8" />
  <rect x="140" y="95" width="180" height="26" rx="13" fill="#ffffff" stroke="#e2d8c8" />
  <text x="150" y="112" fill="#1f4f5a" font-family="Helvetica, Arial, sans-serif" font-size="12" letter-spacing="2">TIMELINE-FIRST</text>
  <text x="140" y="142" fill="#2b2a27" font-family="Helvetica, Arial, sans-serif" font-size="24" font-weight="600">LogService Guided Console</text>

  <rect x="110" y="180" width="980" height="120" rx="20" fill="#ffffff" stroke="#e2d8c8" />
  <rect x="140" y="210" width="920" height="52" rx="26" fill="#faf7f1" stroke="#e2d8c8" />
  <rect x="330" y="210" width="260" height="52" rx="26" fill="#1f4f5a" opacity="0.16" />
  <rect x="330" y="210" width="2" height="52" fill="#1f4f5a" />
  <rect x="590" y="210" width="2" height="52" fill="#1f4f5a" />
  <rect x="260" y="218" width="90" height="26" rx="13" fill="#ffffff" stroke="#e2d8c8" />
  <rect x="430" y="218" width="90" height="26" rx="13" fill="#ffffff" stroke="#e2d8c8" />
  <rect x="570" y="218" width="90" height="26" rx="13" fill="#ffffff" stroke="#e2d8c8" />
  <rect x="720" y="218" width="90" height="26" rx="13" fill="#ffffff" stroke="#e2d8c8" />

  <rect x="110" y="320" width="650" height="310" rx="20" fill="#ffffff" stroke="#e2d8c8" />
  <rect x="790" y="320" width="300" height="200" rx="20" fill="#ffffff" stroke="#e2d8c8" />
  <rect x="810" y="345" width="260" height="50" rx="14" fill="#ffffff" stroke="#e2d8c8" />
  <rect x="810" y="405" width="260" height="50" rx="14" fill="#ffffff" stroke="#e2d8c8" />
  <rect x="810" y="465" width="260" height="50" rx="14" fill="#ffffff" stroke="#e2d8c8" />
  <rect x="810" y="345" width="6" height="50" fill="#1f4f5a" />
  <rect x="810" y="405" width="6" height="50" fill="#3a7ca5" />
</svg>
